<svg xmlns="http://www.w3.org/2000/svg" viewBox="0 0 307.57 284.35"><defs><style>.cls-1{fill:#000b21;}.cls-2{fill:#fff;}.cls-3{opacity:0.39;}.cls-4{fill:#fcfcfc;}</style></defs><title>Recurso 2icono-new</title><g id="Capa_2" data-name="Capa 2"><g id="Capa_1-2" data-name="Capa 1"><rect class="cls-1" width="307.57" height="284.35"/><path class="cls-2" d="M23.19,75.35l21.91-32H124s25.76,3.07,35.47,20c0,0,12.74-19.09,31.37-19.28s95.52-.77,95.52-.77l-21.17,32H198.64S179.52,84.28,178.34,98l-.19,11.22s3,16.63,18.45,24.32h89.78l-21.1,31-66.52.65s-33.92-1.8-51.72-38.38c0,0-6.13,5.83-20.74,8.12l-67.89.14-.15,29.84-33.93,0,.16-62,102.15.1s5.85-.91,7.73-8.22V83.33s-2.2-5-9.64-8.1Z"/><path class="cls-2" d="M54.23,197.67a19.18,19.18,0,0,1,.17,2.56,14.3,14.3,0,0,1-4.11,10.52,14.15,14.15,0,0,1-10.46,4.14,14.92,14.92,0,0,1-10.78-4.24,14.68,14.68,0,0,1,0-20.9,14.69,14.69,0,0,1,10.69-4.26,16.54,16.54,0,0,1,8.57,2.2,11.55,11.55,0,0,1,5.17,6.24l-6.68,1.93q-2.07-4-7.06-4a7.7,7.7,0,0,0-5.76,2.39A8.78,8.78,0,0,0,34,206.17a7.94,7.94,0,0,0,5.9,2.42,8.08,8.08,0,0,0,4.68-1.34,7.1,7.1,0,0,0,2.75-3.7H38.73v-5.88Z"/><path class="cls-2" d="M94.81,214.26l-2-5.12H81l-2,5.12H71.58l11.76-28.14h7.1l11.76,28.14Zm-7.9-20.33-3.57,9.24h7.18Z"/><path class="cls-2" d="M153.9,214.26h-6.72v-14l-7.35,14h-4.29l-7.39-14.11v14.11h-6.72V186.12h6.8l9.46,17.43,9.45-17.43h6.76Z"/><path class="cls-2" d="M175.57,214.26V186.12h6.93v28.14Z"/><path class="cls-2" d="M231.05,214.26h-5.71L211.1,198v16.3h-6.93V186.12h5.75l14.24,16.8v-16.8h6.89Z"/><path class="cls-2" d="M281.37,197.67a21,21,0,0,1,.17,2.56,14.3,14.3,0,0,1-4.12,10.52A14.12,14.12,0,0,1,267,214.89a14.92,14.92,0,0,1-10.78-4.24,14.7,14.7,0,0,1,0-20.9,14.7,14.7,0,0,1,10.69-4.26,16.54,16.54,0,0,1,8.57,2.2,11.47,11.47,0,0,1,5.17,6.24l-6.68,1.93q-2.06-4-7.06-4a7.69,7.69,0,0,0-5.75,2.39,8.8,8.8,0,0,0,.06,11.95,7.94,7.94,0,0,0,5.9,2.42,8.12,8.12,0,0,0,4.69-1.34,7.15,7.15,0,0,0,2.75-3.7h-8.61v-5.88Z"/><g class="cls-3"><path class="cls-4" d="M41,237H39.41L36,229h1.79l2.45,5.86L42.65,229h1.8Z"/><path class="cls-4" d="M52.72,237H46.61v-8h6.08v1.48H48.24v1.81h4.11v1.45H48.24v1.82h4.48Z"/><path class="cls-4" d="M62.87,237H61.5l-4.45-5.16V237H55.42v-8h1.37l4.45,5.31V229h1.63Z"/><path class="cls-4" d="M69.46,230.44V237H67.83v-6.56H65.15V229h7v1.48Z"/><path class="cls-4" d="M79.57,237l-.69-1.72H75.33L74.62,237H72.86l3.48-8h1.52l3.48,8Zm-2.47-6.06-1.17,2.87h2.34Z"/><path class="cls-4" d="M90.46,229a4.55,4.55,0,0,1,3.2,1.11,4.1,4.1,0,0,1,0,5.82,4.55,4.55,0,0,1-3.2,1.11h-3v-8Zm0,6.56a2.89,2.89,0,0,0,2-.68,2.64,2.64,0,0,0,0-3.71,2.85,2.85,0,0,0-2-.69H89.13v5.08Z"/><path class="cls-4" d="M103.5,237H97.4v-8h6.08v1.48H99v1.81h4.1v1.45H99v1.82h4.47Z"/><path class="cls-4" d="M116.2,237l-.7-1.72H112l-.71,1.72h-1.76l3.48-8h1.52l3.48,8Zm-2.47-6.06-1.18,2.87h2.34Z"/><path class="cls-4" d="M125.15,235.15a2.5,2.5,0,0,0,.85-1.51l1.58.33a3.77,3.77,0,0,1-1.38,2.36,4,4,0,0,1-2.57.85,4.07,4.07,0,0,1-3-1.21,4.26,4.26,0,0,1,0-6,4.31,4.31,0,0,1,5.56-.38,3.67,3.67,0,0,1,1.39,2.26l-1.58.44a2.5,2.5,0,0,0-.86-1.5,2.39,2.39,0,0,0-1.51-.5,2.47,2.47,0,0,0-1.84.76,2.81,2.81,0,0,0,0,3.81,2.47,2.47,0,0,0,1.83.77A2.35,2.35,0,0,0,125.15,235.15Z"/><path class="cls-4" d="M135.49,235.15a2.51,2.51,0,0,0,.86-1.51l1.58.33a3.77,3.77,0,0,1-1.38,2.36A4.23,4.23,0,0,1,131,230a4.32,4.32,0,0,1,5.57-.38,3.72,3.72,0,0,1,1.39,2.26l-1.58.44a2.55,2.55,0,0,0-.86-1.5,2.57,2.57,0,0,0-3.35.26,2.79,2.79,0,0,0,0,3.81,2.47,2.47,0,0,0,1.83.77A2.35,2.35,0,0,0,135.49,235.15Z"/><path class="cls-4" d="M146.56,237h-6.11v-8h6.08v1.48h-4.45v1.81h4.1v1.45h-4.1v1.82h4.48Z"/><path class="cls-4" d="M154.3,229.41a2.71,2.71,0,0,1,1.09,1.69l-1.63.34a1.36,1.36,0,0,0-.53-.91,1.68,1.68,0,0,0-1.06-.34,1.41,1.41,0,0,0-.94.29.86.86,0,0,0-.36.7c0,.44.27.71.8.82l1.73.35a3,3,0,0,1,1.55.79,2.1,2.1,0,0,1,.56,1.51,2.23,2.23,0,0,1-.88,1.85,3.67,3.67,0,0,1-2.31.68,4,4,0,0,1-2.27-.62,2.37,2.37,0,0,1-1.09-1.77l1.72-.34a1.61,1.61,0,0,0,1.79,1.3,1.65,1.65,0,0,0,1.06-.29.87.87,0,0,0,.37-.73.75.75,0,0,0-.21-.56,1.42,1.42,0,0,0-.72-.31l-1.71-.33a2.25,2.25,0,0,1-2.11-2.3,2.18,2.18,0,0,1,.83-1.77,3.89,3.89,0,0,1,4.32-.05Z"/><path class="cls-4" d="M165,230a4.21,4.21,0,0,1,0,6,4.31,4.31,0,0,1-6,0,4.21,4.21,0,0,1,0-6,4.29,4.29,0,0,1,6,0Zm-1.17,4.88a2.78,2.78,0,0,0,0-3.8,2.46,2.46,0,0,0-1.84-.77,2.49,2.49,0,0,0-1.84.77,2.78,2.78,0,0,0,0,3.8,2.51,2.51,0,0,0,1.84.75A2.48,2.48,0,0,0,163.79,234.89Z"/><path class="cls-4" d="M173.85,237l-2.66-2.95h-.85V237h-1.63v-8h3.85a3,3,0,0,1,2.09.71,2.32,2.32,0,0,1,.79,1.84,2.4,2.4,0,0,1-.62,1.68,2.8,2.8,0,0,1-1.68.82l2.7,3Zm-1.29-4.43a1.33,1.33,0,0,0,.91-.29.94.94,0,0,0,.35-.77,1,1,0,0,0-.35-.78,1.38,1.38,0,0,0-.91-.29h-2.22v2.13Z"/><path class="cls-4" d="M178,237v-8h1.63v8Z"/><path class="cls-4" d="M189.39,230a4.21,4.21,0,0,1,0,6,4.31,4.31,0,0,1-6,0,4.21,4.21,0,0,1,0-6,4.29,4.29,0,0,1,6,0Zm-1.16,4.88a2.78,2.78,0,0,0,0-3.8,2.6,2.6,0,0,0-3.69,0,2.81,2.81,0,0,0,0,3.8,2.64,2.64,0,0,0,3.69,0Z"/><path class="cls-4" d="M198.18,229.41a2.67,2.67,0,0,1,1.09,1.69l-1.63.34a1.32,1.32,0,0,0-.53-.91,1.63,1.63,0,0,0-1.05-.34,1.44,1.44,0,0,0-.95.29.86.86,0,0,0-.36.7c0,.44.27.71.8.82l1.73.35a2.93,2.93,0,0,1,1.55.79,2.06,2.06,0,0,1,.56,1.51,2.24,2.24,0,0,1-.87,1.85,3.72,3.72,0,0,1-2.32.68,4.06,4.06,0,0,1-2.27-.62,2.37,2.37,0,0,1-1.09-1.77l1.72-.34a1.94,1.94,0,0,0,2.85,1,.88.88,0,0,0,.38-.73.75.75,0,0,0-.21-.56,1.47,1.47,0,0,0-.73-.31l-1.7-.33c-1.41-.29-2.11-1.06-2.11-2.3a2.17,2.17,0,0,1,.82-1.77,3.89,3.89,0,0,1,4.32-.05Z"/><path class="cls-4" d="M209.89,229a3.07,3.07,0,0,1,2.17.74,2.53,2.53,0,0,1,.81,2,2.58,2.58,0,0,1-.8,2,3.09,3.09,0,0,1-2.18.73h-2.11V237h-1.63v-8Zm0,3.94a1.39,1.39,0,0,0,1-.34,1.19,1.19,0,0,0,.35-.9,1.17,1.17,0,0,0-.35-.88,1.39,1.39,0,0,0-1-.34h-2.11v2.46Z"/><path class="cls-4" d="M220.25,237l-.7-1.72H216l-.7,1.72h-1.77l3.48-8h1.52l3.48,8Zm-2.47-6.06-1.18,2.87h2.34Z"/><path class="cls-4" d="M229.19,237l-2.65-2.95h-.85V237h-1.63v-8h3.85a3,3,0,0,1,2.08.71,2.32,2.32,0,0,1,.79,1.84,2.36,2.36,0,0,1-.62,1.68,2.8,2.8,0,0,1-1.68.82l2.7,3Zm-1.28-4.43a1.34,1.34,0,0,0,.91-.29,1,1,0,0,0,.34-.77,1,1,0,0,0-.34-.78,1.4,1.4,0,0,0-.91-.29h-2.22v2.13Z"/><path class="cls-4" d="M239.34,237l-.7-1.72h-3.55l-.7,1.72h-1.77l3.48-8h1.53l3.47,8Zm-2.47-6.06-1.18,2.87H238Z"/><path class="cls-4" d="M251,229a3.1,3.1,0,0,1,2.17.74,2.55,2.55,0,0,1,.8,2,2.58,2.58,0,0,1-.8,2,3.08,3.08,0,0,1-2.17.73h-2.12V237h-1.63v-8Zm0,3.94a1.38,1.38,0,0,0,1-.34,1.19,1.19,0,0,0,.35-.9,1.17,1.17,0,0,0-.35-.88,1.38,1.38,0,0,0-1-.34h-2.12v2.46Z"/><path class="cls-4" d="M261.83,235.15a2.5,2.5,0,0,0,.85-1.51l1.58.33a3.77,3.77,0,0,1-1.38,2.36,4.23,4.23,0,0,1-5.57-6.33,4.31,4.31,0,0,1,5.56-.38,3.67,3.67,0,0,1,1.39,2.26l-1.58.44a2.5,2.5,0,0,0-.86-1.5,2.42,2.42,0,0,0-1.52-.5,2.46,2.46,0,0,0-1.83.76,2.59,2.59,0,0,0-.74,1.9,2.62,2.62,0,0,0,.75,1.91,2.46,2.46,0,0,0,1.82.77A2.37,2.37,0,0,0,261.83,235.15Z"/><path class="cls-4" d="M271.82,229.41a2.72,2.72,0,0,1,1.1,1.69l-1.64.34a1.35,1.35,0,0,0-.52-.91,1.68,1.68,0,0,0-1.06-.34,1.44,1.44,0,0,0-.95.29.86.86,0,0,0-.36.7c0,.44.27.71.81.82l1.72.35a3,3,0,0,1,1.56.79,2.1,2.1,0,0,1,.56,1.51,2.25,2.25,0,0,1-.88,1.85,3.67,3.67,0,0,1-2.31.68,4.09,4.09,0,0,1-2.28-.62,2.36,2.36,0,0,1-1.08-1.77l1.71-.34a1.63,1.63,0,0,0,1.8,1.3,1.65,1.65,0,0,0,1.06-.29.9.9,0,0,0,.37-.73.75.75,0,0,0-.21-.56,1.42,1.42,0,0,0-.73-.31l-1.7-.33c-1.41-.29-2.11-1.06-2.11-2.3a2.15,2.15,0,0,1,.83-1.77,3.87,3.87,0,0,1,4.31-.05Z"/></g></g></g></svg>