<?xml version="1.0" encoding="iso-8859-1"?>
<!-- Generator: Adobe Illustrator 19.0.0, SVG Export Plug-In . SVG Version: 6.00 Build 0)  -->
<svg version="1.1" id="Capa_1" xmlns="http://www.w3.org/2000/svg" xmlns:xlink="http://www.w3.org/1999/xlink" x="0px" y="0px"
	 viewBox="0 0 368 368" style="enable-background:new 0 0 368 368;" xml:space="preserve">
<g>
	<g>
		<path d="M120,0c-8.32,0-15.848,3.272-21.544,8.496C97.672,8.24,96.872,8,96,8C60.712,8,32,36.712,32,72
			c0,19.52,8.968,37.792,24,49.792V184c0,14.864,10.232,27.288,24,30.864V360c0,4.416,3.576,8,8,8s8-3.584,8-8V214.864
			c13.768-3.576,24-16,24-30.864v-40c17.648,0,32-14.352,32-32V32C152,14.352,137.648,0,120,0z M48,72
			c0-23.744,17.328-43.512,40-47.336V32v80v7.344c-7-1.168-13.608-3.864-19.448-8C55.688,102.432,48,87.728,48,72z M104.008,184H104
			c0,8.824-7.176,16-16,16c-8.824,0-16-7.176-16-16v-52.64c1.248,0.504,2.536,0.912,3.816,1.336c0.432,0.144,0.856,0.32,1.296,0.456
			c2.688,0.832,5.44,1.448,8.24,1.912c0.632,0.104,1.256,0.184,1.888,0.272C90.12,135.728,93.04,136,96,136
			c0.84,0,1.656-0.128,2.416-0.368c0.128,0.12,0.296,0.192,0.432,0.312c1.528,1.344,3.16,2.56,4.936,3.584
			c0.08,0.048,0.144,0.112,0.224,0.16V184z M136,112c0,10.648-10.72,19.08-21.416,14.992C108.256,124.824,104,118.8,104,112V32
			c0-8.824,7.176-16,16-16c8.824,0,16,7.176,16,16V112z"/>
	</g>
</g>
<g>
	<g>
		<path d="M272,56c-0.872,0-1.672,0.24-2.456,0.496C263.848,51.272,256.32,48,248,48c-17.648,0-32,14.352-32,32v80
			c0,17.648,14.352,32,32,32v40c0,14.864,10.232,27.288,24,30.864V360c0,4.416,3.576,8,8,8s8-3.584,8-8v-97.136
			c13.768-3.576,24-16,24-30.864v-62.216c15.048-12.04,24-30.288,24-49.784C336,84.712,307.288,56,272,56z M253.416,174.992
			c-0.104,0.032-0.2,0.072-0.304,0.112C251.584,175.688,249.824,176,248,176c-8.824,0-16-7.176-16-16V80c0-8.824,7.176-16,16-16
			c8.824,0,16,7.176,16,16v80C264,166.8,259.744,172.824,253.416,174.992z M280,248c-8.824,0-16-7.176-16-16v-44.312
			c0.256-0.144,0.456-0.36,0.704-0.512c1.472-0.896,2.848-1.896,4.136-3.008c0.232-0.2,0.52-0.336,0.744-0.544
			c0.76,0.248,1.576,0.376,2.416,0.376c2.96,0,5.872-0.272,8.752-0.664c0.632-0.088,1.264-0.168,1.896-0.272
			c2.792-0.464,5.544-1.08,8.232-1.912c0.432-0.136,0.848-0.304,1.272-0.448c1.288-0.424,2.584-0.832,3.84-1.344V232H296
			C296,240.824,288.824,248,280,248z M299.448,159.344c-0.024,0.016-0.048,0.032-0.072,0.048
			c-5.792,4.104-12.376,6.792-19.376,7.952V160V80v-7.336c22.672,3.824,40,23.592,40,47.336
			C320,135.728,312.312,150.432,299.448,159.344z"/>
	</g>
</g>
<g>
</g>
<g>
</g>
<g>
</g>
<g>
</g>
<g>
</g>
<g>
</g>
<g>
</g>
<g>
</g>
<g>
</g>
<g>
</g>
<g>
</g>
<g>
</g>
<g>
</g>
<g>
</g>
<g>
</g>
</svg>
