<?xml version="1.0" encoding="iso-8859-1"?>
<!-- Generator: Adobe Illustrator 19.0.0, SVG Export Plug-In . SVG Version: 6.00 Build 0)  -->
<svg version="1.1" id="Capa_1" xmlns="http://www.w3.org/2000/svg" xmlns:xlink="http://www.w3.org/1999/xlink" x="0px" y="0px"
	 viewBox="0 0 446.8 446.8" style="enable-background:new 0 0 446.8 446.8;" xml:space="preserve">
<g>
	<g>
		<g>
			<circle cx="359.6" cy="226.2" r="9.2"/>
			<circle cx="388" cy="226.2" r="9.2"/>
			<path d="M439.6,72.6H308.4c-4,0-7.2,3.2-7.2,7.2V367c0,4,3.2,7.2,7.2,7.2h131.2c4,0,7.2-3.2,7.2-7.2V79.8
				C446.4,75.8,443.2,72.6,439.6,72.6z M432.4,359.8H315.6v-15.2h116.8V359.8z M432.4,331H315.6V87h116.8V331z"/>
			<path d="M338.4,168.2h71.2c4,0,7.2-3.2,7.2-7.2s-3.2-7.2-7.2-7.2h-71.2c-4,0-7.2,3.2-7.2,7.2S334.4,168.2,338.4,168.2z"/>
			<path d="M338.4,204.6h71.2c4,0,7.2-3.2,7.2-7.2s-3.2-7.2-7.2-7.2h-71.2c-4,0-7.2,3.2-7.2,7.2S334.4,204.6,338.4,204.6z"/>
			<path d="M279.2,123.8H7.2c-4,0-7.2,3.2-7.2,7.2v183.2c0,4,3.2,7.2,7.2,7.2h97.2l-20,40.8c-1.2,2-0.8,4.8,0.4,6.8
				c1.2,2,3.6,3.2,6,3.2h104.4c2.4,0,4.8-1.2,6-3.2s1.6-4.8,0.4-6.8l-20-41.2h97.6c4,0,7.2-3.2,7.2-7.2V131
				C286.4,127,283.2,123.8,279.2,123.8z M184,358.2h-82l17.6-37.2h46L184,358.2z M271.6,307H14v-22.4h257.6V307z M272,270.6H14
				V138.2h258V270.6z"/>
		</g>
	</g>
</g>
<g>
</g>
<g>
</g>
<g>
</g>
<g>
</g>
<g>
</g>
<g>
</g>
<g>
</g>
<g>
</g>
<g>
</g>
<g>
</g>
<g>
</g>
<g>
</g>
<g>
</g>
<g>
</g>
<g>
</g>
</svg>
