<svg xmlns="http://www.w3.org/2000/svg" viewBox="0 0 75.58 73.7"><defs><style>.cls-1{fill:#374f42;}.cls-2{fill:#d2862b;}.cls-3{fill:#cf852a;}.cls-4{fill:#fff;}</style></defs><title>Recurso 1</title><g id="Capa_2" data-name="Capa 2"><g id="Capa_1-2" data-name="Capa 1"><path class="cls-1" d="M.12,30.93S2.6,2.75,34.87.14s49.05,33.3,31.89,57.42S-2.8,76.36.12,30.93"/><path class="cls-2" d="M38.38,73.7a41,41,0,0,1-13.69-2.31A33.8,33.8,0,0,1,7.56,58.21C3,51.31,1,42.72,1.68,32.69h0A36.46,36.46,0,0,1,7,18.17,33.38,33.38,0,0,1,17.49,7.65,41.74,41.74,0,0,1,36.63,1.7,35.73,35.73,0,0,1,57.16,5.87,35,35,0,0,1,70.67,19.33a37.68,37.68,0,0,1,4.89,19.82,36.89,36.89,0,0,1-6.86,20.3c-4.38,6.16-11.36,10.74-19.63,12.89A42.52,42.52,0,0,1,38.38,73.7M2.1,32.72C.9,51.48,9.18,65.43,24.83,71c16,5.68,34.71.62,43.53-11.78a37.08,37.08,0,0,0,2-39.68C63.46,7.48,50.88,1,36.66,2.12,20.09,3.46,11.57,11.7,7.35,18.38A35.86,35.86,0,0,0,2.1,32.72"/><path class="cls-3" d="M49,46.89l-1.58,0V41.08H45l8.39-.34a1,1,0,0,0,.89-1.07,33.45,33.45,0,0,0-1.11-5.46,12.92,12.92,0,0,0-3.3-5.65c-3.1-2.95-7.75-3.54-12-3.4a19.1,19.1,0,0,0-4.71.64,13.55,13.55,0,0,0-7.71,6.34A19.19,19.19,0,0,0,23.1,42l3.76-.16v5.34L21,47.22l-.53,1.34v2H55.57a.94.94,0,0,0,.94-.94v-2.1a.94.94,0,0,0-1-.94c-2.15.21-4.31.24-6.46.26"/><path class="cls-4" d="M31.06,19.74a12.29,12.29,0,0,1,2.35-.49,20.77,20.77,0,0,1,2.36-.15,23.46,23.46,0,0,1,2.36.12,13.29,13.29,0,0,1,2.36.46,12.42,12.42,0,0,1-2.36.5,20.62,20.62,0,0,1-2.36.14,18.5,18.5,0,0,1-2.35-.12,12.15,12.15,0,0,1-2.36-.46"/><path class="cls-4" d="M17.92,41c2.95-.44,5.9-.68,8.86-.86s5.91-.28,8.87-.32,5.91,0,8.87.11,5.88.34,8.87.37a45.11,45.11,0,0,1-8.85,1.16c-3,.18-5.91.28-8.87.31s-5.92,0-8.87-.11-5.92-.29-8.88-.66"/><path class="cls-4" d="M17.92,46.06c1.47-.19,2.95-.32,4.43-.44s2.95-.21,4.43-.29,2.95-.13,4.43-.17,3-.08,4.44-.07c3,0,5.91.25,8.87.36a44.71,44.71,0,0,0,8.82-.36.37.37,0,0,1,.42.3v.07c0,.68.05,1.37.09,2L54,49.56a.54.54,0,0,1-.51.57h-.06c-1.5.08-3,.17-4.5.23l-4.51.12-4.5.09q-2.25,0-4.5,0c-3,0-6-.11-9-.22s-6-.29-9-.53h0a.27.27,0,0,1-.25-.28h0c.06-.69.12-1.37.2-2.05a.09.09,0,0,1,.1-.09c.05,0,.09,0,.09.09.07.68.14,1.36.19,2.05l-.29-.3c3-.24,6-.41,9-.53s6-.21,9-.22c1.5,0,3,0,4.5,0l4.5.09c1.5,0,3,.07,4.51.13s3,.14,4.5.22l-.58.58.11-2.05c0-.68.06-1.37.09-2l.42.37c-3,.27-5.94.23-8.9.42s-5.91.48-8.86.57c-1.48,0-3,0-4.44,0s-3,0-4.43-.07-3-.1-4.44-.19-3-.18-4.44-.34a.1.1,0,0,1-.09-.11.11.11,0,0,1,.09-.09"/><path class="cls-4" d="M19.88,40.91a15.59,15.59,0,0,1,.22-6.55,14.85,14.85,0,0,1,1.17-3.14,11.31,11.31,0,0,1,1.92-2.78,12.63,12.63,0,0,1,2.61-2.12,19,19,0,0,1,3-1.46A17.58,17.58,0,0,1,31.93,24c1.08-.19,2.15-.34,3.23-.45a25.63,25.63,0,0,1,3.29-.14,17,17,0,0,1,3.31.42A13.74,13.74,0,0,1,45,25a10.78,10.78,0,0,1,2.82,2.08,11.52,11.52,0,0,1,2,2.88,14.8,14.8,0,0,1,1.1,3.18,15.53,15.53,0,0,1,.3,1.63c.09.55.14,1.09.18,1.63a31.92,31.92,0,0,1,.07,3.24.09.09,0,0,1-.1.1.1.1,0,0,1-.09-.07c-.61-2.07-1.08-4.16-1.83-6.08a14.25,14.25,0,0,0-3.08-5.06A11.12,11.12,0,0,0,44,26.78a12.74,12.74,0,0,0-2.73-1.16,22.48,22.48,0,0,0-3-.64c-1-.16-2.06-.29-3.11-.35a18.51,18.51,0,0,0-3.16,0,9.49,9.49,0,0,0-3,.79,9.7,9.7,0,0,0-2.56,1.73,16.89,16.89,0,0,0-2,2.3A24.32,24.32,0,0,0,22.8,32a22.44,22.44,0,0,0-1.25,2.78,29.22,29.22,0,0,0-.87,3c-.24,1-.42,2.06-.6,3.13h0A.1.1,0,0,1,20,41a.11.11,0,0,1-.08-.08"/><path class="cls-4" d="M47.59,40.55A6.38,6.38,0,0,1,48,42a10.2,10.2,0,0,1,0,2.85,6.93,6.93,0,0,1-.35,1.43,5.36,5.36,0,0,1-.42-1.42,8.63,8.63,0,0,1-.12-1.43A8.53,8.53,0,0,1,47.19,42a5.77,5.77,0,0,1,.4-1.43"/></g></g></svg>